<svg xmlns="http://www.w3.org/2000/svg" viewBox="0 0 24 24" id="bag">
  <path d="M20.03174,9.61719A2.54062,2.54062,0,0,0,17.48584,7.5H16.5V7a4.5,4.5,0,0,0-9,0v.5H6.51416a2.54062,2.54062,0,0,0-2.5459,2.11719l-1.4375,9a2.44824,2.44824,0,0,0,.561,1.97656A2.59989,2.59989,0,0,0,5.07666,21.5H18.92334a2.59989,2.59989,0,0,0,1.98486-.90625,2.44824,2.44824,0,0,0,.561-1.97656ZM8.5,7a3.5,3.5,0,0,1,7,0v.5h-7ZM20.14746,19.94434A1.6,1.6,0,0,1,18.92334,20.5H5.07666a1.6,1.6,0,0,1-1.22412-.55566,1.42891,1.42891,0,0,1-.33447-1.16895l1.4375-9A1.54552,1.54552,0,0,1,6.51416,8.5H7.5V11a.5.5,0,0,0,1,0V8.5h7V11a.5.5,0,0,0,1,0V8.5h.98584a1.54552,1.54552,0,0,1,1.55859,1.27539l1.4375,9A1.42891,1.42891,0,0,1,20.14746,19.94434Z"></path>
</svg>
