<svg xmlns="http://www.w3.org/2000/svg" xml:space="preserve" id="wishlist" x="0" y="0" style="enable-background:new 0 0 100 100" version="1.1" viewBox="0 0 100 100">
  <path d="M34.01,26.96c0,1.1-0.9,2-2,2c-4.41,0-8,3.59-8,8c0,1.1-0.9,2-2,2s-2-0.9-2-2c0-6.62,5.38-12,12-12
	C33.11,24.96,34.01,25.86,34.01,26.96z M85.57,52.23L51.42,86.38c-0.39,0.39-0.9,0.59-1.41,0.59s-1.02-0.2-1.41-0.59l-34-34
	c-9.05-9.05-9.05-23.78,0-32.83s23.78-9.05,32.83,0l2.59,2.59l2.59-2.59c4.38-4.38,10.21-6.8,16.41-6.8s12.03,2.41,16.41,6.8
	C94.39,28.52,94.46,43.18,85.57,52.23z M82.59,22.38c-3.63-3.63-8.45-5.62-13.59-5.62s-9.96,2-13.59,5.62l-4,4
	c-0.78,0.78-2.05,0.78-2.83,0l-4-4c-7.49-7.49-19.68-7.49-27.17,0s-7.49,19.68,0,27.17l32.59,32.59l32.73-32.73
	C90.07,41.93,90.02,29.8,82.59,22.38z"></path>
</svg>
